<svg width="60" height="28" viewBox="0 0 80 37" fill="none" xmlns="http://www.w3.org/2000/svg">
<g clip-path="url(#clip0)">
<path d="M80.0953 18.507H70.064V37.014H80.0953V18.507Z" fill="#FE5C5C"/>
<path d="M42.8704 18.507C42.8704 20.1933 42.8704 21.5283 42.8704 22.526C43.2288 32.1753 48.7468 37 59.4243 37H74.9878V29.0744H59.7497C58.8596 29.1476 57.9637 29.045 57.1137 28.7725C56.2638 28.4999 55.4766 28.0629 54.7977 27.4865C53.6226 26.088 53.0169 24.3035 53.0998 22.4839C53.0291 21.458 52.9866 20.1371 52.9866 18.5211C52.9866 16.9051 52.9866 15.5982 53.0998 14.6145C53.055 13.701 53.1947 12.7877 53.5105 11.9286C53.8264 11.0694 54.3122 10.2817 54.9391 9.61185C56.3551 8.43561 58.1779 7.85567 60.0185 7.99582H75.0727V0H59.7497C54.5005 0 50.4116 1.23661 47.5111 3.72389C46.0155 5.07542 44.8316 6.73195 44.0404 8.5801C43.2492 10.4282 42.8694 12.4244 42.927 14.4318C42.8987 15.4577 42.8704 16.8629 42.8704 18.507Z" fill="#FE5C5C"/>
<path d="M0.000114441 18.507H10.0315L10.0315 0H0.000114441L0.000114441 18.507Z" fill="#FE5C5C"/>
<path d="M37.1684 14.4318C37.0127 9.83669 35.4988 6.21117 32.5418 3.72389C29.5847 1.23661 25.5948 0 20.3457 0H5.00854V7.92556H20.0768C21.9174 7.78541 23.7402 8.36535 25.1562 9.54159C25.7806 10.2133 26.2646 11.0013 26.5803 11.86C26.896 12.7187 27.0372 13.631 26.9955 14.5442C27.0663 15.5279 27.1087 16.8207 27.1087 18.4508C27.1087 20.0809 27.1087 21.3878 26.9955 22.4136C27.0983 24.2597 26.4857 26.0748 25.2835 27.4865C24.6076 28.0631 23.8229 28.5004 22.9752 28.773C22.1275 29.0456 21.2336 29.1481 20.3457 29.0744H5.00854V37H20.572C31.2401 37 36.7581 32.1753 37.1259 22.526C37.1259 21.5283 37.1259 20.1933 37.1259 18.507C37.1259 16.8207 37.1967 15.4577 37.1684 14.4318Z" fill="#FE5C5C"/>
</g>
<defs>
<clipPath id="clip0">
<rect width="80" height="37" fill="white"/>
</clipPath>
</defs>
</svg>
